<?xml version="1.0" standalone="no"?>
<!DOCTYPE svg PUBLIC "-//W3C//DTD SVG 20010904//EN"
 "http://www.w3.org/TR/2001/REC-SVG-20010904/DTD/svg10.dtd">
<svg version="1.0" xmlns="http://www.w3.org/2000/svg"
 width="164.000000pt" height="35.000000pt" viewBox="0 0 164.000000 35.000000"
 preserveAspectRatio="xMidYMid meet">

<g transform="translate(0.000000,35.000000) scale(0.100000,-0.100000)"
fill="#000000" stroke="none">
<path d="M0 175 l0 -175 570 0 570 0 0 175 0 175 -570 0 -570 0 0 -175z m213
43 c-1 -16 2 -28 8 -28 13 0 11 -44 -3 -58 -7 -7 -25 -12 -40 -12 -27 0 -28 1
-28 58 0 67 4 74 40 70 20 -2 25 -8 23 -30z m263 5 c-10 -10 -19 5 -10 18 6
11 8 11 12 0 2 -7 1 -15 -2 -18z m44 1 c0 -21 4 -24 19 -19 23 7 44 -24 39
-57 -5 -38 -28 -33 -28 6 0 25 -4 36 -15 36 -10 0 -15 -11 -15 -35 0 -19 -4
-35 -10 -35 -6 0 -10 28 -10 65 0 37 4 65 10 65 6 0 10 -12 10 -26z m246 -1
c-10 -10 -19 5 -10 18 6 11 8 11 12 0 2 -7 1 -15 -2 -18z m-146 -8 c0 -8 8
-16 18 -16 16 -1 16 -2 -1 -6 -13 -3 -17 -12 -15 -31 2 -15 9 -26 16 -25 6 2
12 -2 12 -8 0 -6 -10 -9 -22 -7 -18 2 -24 11 -28 38 -7 40 -2 70 11 70 5 0 9
-7 9 -15z m-312 -17 c7 -7 12 -26 12 -43 0 -29 -3 -32 -35 -33 -40 -2 -55 18
-35 43 10 12 10 15 0 15 -10 0 -10 3 0 15 15 18 42 19 58 3z m72 -70 c0 -4 -4
-8 -10 -8 -13 0 -42 69 -33 82 5 10 43 -54 43 -74z m30 34 c0 -7 5 -10 10 -7
12 7 12 3 4 -19 -8 -20 -24 -21 -24 -1 0 8 -4 15 -10 15 -5 0 -10 15 -10 33 1
30 1 31 15 13 8 -11 15 -26 15 -34z m316 33 c7 -17 -12 -45 -30 -44 -7 0 -6 2
2 6 17 7 15 33 -4 33 -10 0 -14 -7 -12 -22 2 -18 9 -23 30 -23 21 1 25 -2 16
-13 -14 -17 -48 -12 -61 9 -8 13 -6 24 6 43 19 29 45 34 53 11z m-246 -35 c0
-22 -4 -40 -10 -40 -5 0 -10 18 -10 40 0 22 5 40 10 40 6 0 10 -18 10 -40z
m290 0 c0 -22 -4 -40 -10 -40 -5 0 -10 18 -10 40 0 22 5 40 10 40 6 0 10 -18
10 -40z"/>
<path d="M170 215 c0 -8 7 -15 15 -15 8 0 15 7 15 15 0 8 -7 15 -15 15 -8 0
-15 -7 -15 -15z"/>
<path d="M170 161 c0 -16 6 -21 26 -21 33 0 30 33 -4 38 -17 3 -22 -2 -22 -17z"/>
<path d="M270 190 c0 -5 7 -10 16 -10 8 0 12 5 9 10 -3 6 -10 10 -16 10 -5 0
-9 -4 -9 -10z"/>
<path d="M262 144 c9 -9 21 -13 27 -10 20 13 11 26 -16 26 -25 0 -26 -1 -11
-16z"/>
<path d="M1332 330 c-12 -11 -29 -46 -37 -78 -9 -31 -20 -70 -25 -85 -12 -36
-4 -54 31 -73 16 -8 29 -20 29 -27 0 -7 9 -18 20 -25 11 -7 20 -19 20 -27 0
-9 10 -15 25 -15 29 0 30 8 12 53 -8 18 -13 35 -13 39 1 4 -9 15 -22 24 -13 9
-21 22 -18 30 3 8 1 14 -4 14 -6 0 -10 6 -10 14 0 10 7 12 21 9 20 -6 21 -3
15 31 l-7 38 28 -26 c24 -23 28 -24 34 -9 5 14 7 14 11 -5 4 -13 14 -22 26
-22 15 0 18 -5 14 -27 -2 -16 -11 -33 -19 -40 -8 -6 -13 -16 -9 -21 3 -5 -1
-29 -8 -53 -13 -41 -12 -45 3 -46 12 -1 17 6 16 25 0 23 5 28 30 30 17 2 34 8
39 12 5 5 10 47 11 92 1 46 -1 75 -4 65 -5 -14 -11 -4 -24 37 -10 31 -28 62
-40 71 -33 23 -118 20 -145 -5z m32 -105 c3 -8 1 -15 -4 -15 -6 0 -10 7 -10
15 0 8 2 15 4 15 2 0 6 -7 10 -15z m126 -5 c0 -5 -2 -10 -4 -10 -3 0 -8 5 -11
10 -3 6 -1 10 4 10 6 0 11 -4 11 -10z"/>
<path d="M1530 30 c0 -11 4 -20 9 -20 5 0 7 9 4 20 -3 11 -7 20 -9 20 -2 0 -4
-9 -4 -20z"/>
</g>
</svg>
